<svg width="110" height="51" xmlns="http://www.w3.org/2000/svg" xmlns:xlink="http://www.w3.org/1999/xlink" xmlns:svgjs="http://svgjs.com/svgjs" viewBox="1412 588 110 51"><svg width="74" height="51" xmlns="http://www.w3.org/2000/svg" xmlns:xlink="http://www.w3.org/1999/xlink" xmlns:svgjs="http://svgjs.com/svgjs" viewBox="0 0.5 74 50" fill="#71b8ff" x="1412" y="588"><svg xmlns="http://www.w3.org/2000/svg" xmlns:xlink="http://www.w3.org/1999/xlink" width="74" height="51" viewBox="0 0 74 50"><path paint-order="stroke fill markers" fill-rule="evenodd" d="M8 0h58c4.424 0 8 3.576 8 8v34c0 4.424-3.576 8-8 8H8c-4.424 0-8-3.576-8-8V8c0-4.424 3.576-8 8-8z"/></svg></svg><svg width="73" height="51" xmlns="http://www.w3.org/2000/svg" xmlns:xlink="http://www.w3.org/1999/xlink" xmlns:svgjs="http://svgjs.com/svgjs" viewBox="0 0.5 73 50" fill="#71b8ff" opacity=".6" x="1432" y="588"><svg xmlns="http://www.w3.org/2000/svg" xmlns:xlink="http://www.w3.org/1999/xlink" width="73" height="51" viewBox="0 0 73 50"><path paint-order="stroke fill markers" fill-rule="evenodd" d="M8 0h57c4.424 0 8 3.576 8 8v34c0 4.424-3.576 8-8 8H8c-4.424 0-8-3.576-8-8V8c0-4.424 3.576-8 8-8z"/></svg></svg><svg width="74" height="51" xmlns="http://www.w3.org/2000/svg" xmlns:xlink="http://www.w3.org/1999/xlink" xmlns:svgjs="http://svgjs.com/svgjs" viewBox="0 0.5 74 50" fill="#71b8ff" opacity=".4" x="1448" y="588"><svg xmlns="http://www.w3.org/2000/svg" width="74" height="51" viewBox="0 0 74 50"><path paint-order="stroke fill markers" fill-rule="evenodd" d="M8 0h58c4.424 0 8 3.576 8 8v34c0 4.424-3.576 8-8 8H8c-4.424 0-8-3.576-8-8V8c0-4.424 3.576-8 8-8z"/></svg></svg></svg>