<svg width="42" height="43" xmlns="http://www.w3.org/2000/svg" xmlns:xlink="http://www.w3.org/1999/xlink" xmlns:svgjs="http://svgjs.com/svgjs" viewBox="0 0.5 42 42" fill="#37b7c7"><svg xmlns="http://www.w3.org/2000/svg" width="42" height="43" viewBox="0 0.325 42 42"><path paint-order="stroke fill markers" fill-rule="evenodd" d="M5.014 42.325A5.02 5.02 0 0 1 0 37.312V5.339A5.019 5.019 0 0 1 5.014.325h31.972A5.02 5.02 0 0 1 42 5.34v31.973a5.02 5.02 0 0 1-5.014 5.013H5.014zM1.75 5.339v31.973c0 1.799 1.464 3.262 3.264 3.262h31.972c1.8 0 3.264-1.463 3.264-3.262V5.339c0-1.8-1.465-3.264-3.264-3.264H5.014A3.268 3.268 0 0 0 1.75 5.34zm13.148 26.485a.874.874 0 1 1 0-1.75h19.206a.874.874 0 1 1 0 1.75H14.898zm-7.52-.263a.876.876 0 0 1-.243-.613c0-.227.087-.436.244-.612a.916.916 0 0 1 1.242-.017.883.883 0 0 1 .264.63.818.818 0 0 1-.264.612.842.842 0 0 1-.611.262.886.886 0 0 1-.631-.262zm7.52-6.736a.874.874 0 1 1 0-1.75h19.206a.875.875 0 0 1 0 1.75H14.898zm-7.52-.264a.876.876 0 0 1-.243-.613.88.88 0 0 1 .244-.612c.315-.332.91-.332 1.242 0a.89.89 0 0 1 .264.612.887.887 0 0 1-.264.613.817.817 0 0 1-.611.263.833.833 0 0 1-.631-.263zm7.52-6.736a.875.875 0 1 1 0-1.75h19.206a.875.875 0 1 1 0 1.75H14.898zm-7.52-.264a.908.908 0 0 1-.243-.612c0-.228.087-.455.244-.612a.916.916 0 0 1 1.242-.019.889.889 0 0 1 .264.631.817.817 0 0 1-.264.612.844.844 0 0 1-.611.263.888.888 0 0 1-.631-.263zm.528-6.736a.874.874 0 1 1 0-1.75h26.2a.874.874 0 1 1 0 1.75h-26.2z"/></svg></svg>