<svg width="29" height="24" xmlns="http://www.w3.org/2000/svg" xmlns:xlink="http://www.w3.org/1999/xlink" xmlns:svgjs="http://svgjs.com/svgjs" viewBox="396 210 29 24"><svg width="29" height="13" xmlns="http://www.w3.org/2000/svg" xmlns:xlink="http://www.w3.org/1999/xlink" xmlns:svgjs="http://svgjs.com/svgjs" viewBox="0 0.338 29 12.325" fill="#3f4c58" opacity=".4" x="396" y="212"><svg xmlns="http://www.w3.org/2000/svg" xmlns:xlink="http://www.w3.org/1999/xlink" width="29" height="13" viewBox="0 0.067 28.381 12.062"><path paint-order="stroke fill markers" fill-rule="evenodd" d="M28.094.631A1.409 1.409 0 0 0 26.96.067H8.246l2.162 11.352h14.12c.631 0 1.192-.424 1.365-1.03l2.432-8.513A1.409 1.409 0 0 0 28.094.63zM1.064 5.033h3.548a1.064 1.064 0 0 0 0-2.128H1.064a1.064 1.064 0 1 0 0 2.128zm0 3.548h4.257a1.064 1.064 0 1 0 0-2.129H1.064a1.064 1.064 0 1 0 0 2.129zM6.031 10H1.064a1.064 1.064 0 1 0 0 2.129h4.967a1.064 1.064 0 1 0 0-2.129z"/></svg></svg><svg width="24" height="24" xmlns="http://www.w3.org/2000/svg" xmlns:xlink="http://www.w3.org/1999/xlink" xmlns:svgjs="http://svgjs.com/svgjs" fill="#3f4c58" x="398" y="210"><svg xmlns="http://www.w3.org/2000/svg" width="24" height="24" viewBox="0.838 0.648 22.705 22.705"><path paint-order="stroke fill markers" fill-rule="evenodd" d="M21.414 19.095a2.129 2.129 0 1 0 0 4.257 2.129 2.129 0 0 0 0-4.257zm-12.771 0a2.129 2.129 0 1 0 0 4.257 2.129 2.129 0 0 0 0-4.257zm13.835-3.547H8.814L6.14 1.513A1.064 1.064 0 0 0 5.095.648H1.902a1.064 1.064 0 1 0 0 2.128h2.313l2.673 14.035c.095.502.534.865 1.045.865h14.545a1.064 1.064 0 0 0 0-2.128z"/></svg></svg></svg>