<svg width="42" height="43" xmlns="http://www.w3.org/2000/svg" xmlns:xlink="http://www.w3.org/1999/xlink" xmlns:svgjs="http://svgjs.com/svgjs" viewBox="0 0.5 42 42" fill="#37b7c7"><svg xmlns="http://www.w3.org/2000/svg" width="42" height="43" viewBox="0 0.325 42 42"><path paint-order="stroke fill markers" fill-rule="evenodd" d="M5.045 42.325A5.051 5.051 0 0 1 0 37.279V5.37A5.051 5.051 0 0 1 5.045.325h31.91A5.05 5.05 0 0 1 42 5.37v31.91a5.05 5.05 0 0 1-5.046 5.045H5.045zM1.75 5.37v31.91a3.3 3.3 0 0 0 3.295 3.296h31.91a3.3 3.3 0 0 0 3.295-3.297V5.37a3.3 3.3 0 0 0-3.296-3.295H5.045A3.3 3.3 0 0 0 1.75 5.37zm27.964 29.137v-12.73a4.495 4.495 0 0 1-3.613-4.4 4.494 4.494 0 0 1 3.613-4.399v-4.9a.875.875 0 1 1 1.75 0v4.9a4.493 4.493 0 0 1 3.614 4.4 4.494 4.494 0 0 1-3.614 4.4v12.73a.874.874 0 1 1-1.75 0zm-1.863-17.13a2.74 2.74 0 0 0 2.738 2.738 2.74 2.74 0 0 0 2.739-2.737 2.742 2.742 0 0 0-2.739-2.738 2.742 2.742 0 0 0-2.738 2.738zm-7.564 17.13v-1.785a4.493 4.493 0 0 1-3.613-4.4 4.494 4.494 0 0 1 3.613-4.4V8.08a.875.875 0 1 1 1.75 0v15.844a4.493 4.493 0 0 1 3.613 4.399 4.492 4.492 0 0 1-3.613 4.4v1.785a.874.874 0 1 1-1.75 0zm-1.863-6.185a2.74 2.74 0 0 0 2.739 2.738 2.74 2.74 0 0 0 2.737-2.738 2.74 2.74 0 0 0-2.737-2.737 2.74 2.74 0 0 0-2.74 2.737zm-7.93 6.185V17.4a4.494 4.494 0 0 1-3.613-4.399 4.493 4.493 0 0 1 3.612-4.4v-.522a.875.875 0 0 1 1.751 0V8.6a4.492 4.492 0 0 1 3.612 4.4 4.493 4.493 0 0 1-3.612 4.4v17.106a.875.875 0 1 1-1.75 0zM8.63 13.001a2.74 2.74 0 0 0 2.738 2.737 2.74 2.74 0 0 0 2.738-2.737 2.74 2.74 0 0 0-2.738-2.738A2.74 2.74 0 0 0 8.631 13z"/></svg></svg>