<svg width="42" height="35" xmlns="http://www.w3.org/2000/svg" xmlns:xlink="http://www.w3.org/1999/xlink" xmlns:svgjs="http://svgjs.com/svgjs" viewBox="0 0.503 42 33.994" fill="#37b7c7"><svg xmlns="http://www.w3.org/2000/svg" width="42" height="35" viewBox="0 0.325 42 33.994"><path paint-order="stroke fill markers" fill-rule="evenodd" d="M3.173 34.319C1.423 34.319 0 32.683 0 30.672v-15.36-7.936V3.97C0 1.959 1.423.325 3.173.325h35.656c1.748 0 3.17 1.634 3.17 3.646V30.673c0 2.01-1.422 3.646-3.17 3.646H3.173zm-1.43-3.647c0 .905.642 1.644 1.43 1.644h35.656c.788 0 1.428-.739 1.428-1.644V16.313H1.743v14.36zm0-16.361h38.514V8.376H1.743v5.935zm0-10.34v2.403h38.514V3.97c0-.906-.64-1.644-1.428-1.644H3.173c-.788 0-1.43.738-1.43 1.644zm21.82 22.393c-.481 0-.87-.447-.87-1.001 0-.553.389-1.002.87-1.002h10.552c.482 0 .871.45.871 1.002 0 .554-.39 1.001-.871 1.001H23.564z"/></svg></svg>