<svg width="30" height="49" xmlns="http://www.w3.org/2000/svg" xmlns:xlink="http://www.w3.org/1999/xlink" xmlns:svgjs="http://svgjs.com/svgjs" viewBox="0 0.438 30 48.123" fill="#37b7c7"><svg xmlns="http://www.w3.org/2000/svg" width="30" height="49" viewBox="0 0.325 29.914 47.985"><path paint-order="stroke fill markers" fill-rule="evenodd" d="M29.914 14.8c0-7.982-6.71-14.475-14.956-14.475C6.71.325 0 6.818 0 14.8c0 4.142 1.78 8.663 4.767 12.123.018.029.038.057.058.084.954 1.21 3.252 4.616 3.746 7.3-.443.11-.777.485-.777.955v10.05c0 .556.456 1.005 1.02 1.005h2.116l1.734 1.699c.191.189.45.294.722.294h3.143c.27 0 .53-.105.721-.292l1.736-1.701H21.1c.565 0 1.022-.449 1.022-1.004V35.262c0-.455-.313-.823-.735-.947.568-3.238 3.678-7.295 3.678-7.296 3.036-3.47 4.85-8.037 4.85-12.219zm-9.836 29.508h-1.514c-.272 0-.531.107-.72.293l-1.739 1.702H13.81l-1.734-1.7a1.032 1.032 0 0 0-.722-.295H9.837v-8.043h10.24v8.043zm-.754-10.05H15.98v-11.05c.27.073.542.147.846.147 1.25 0 2.633-.651 3.7-1.74.819-.836 1.371-1.843 1.56-2.835.21-1.13-.075-2.163-.787-2.835-1.339-1.267-3.98-.812-5.736.978-.226.23-.429.472-.609.72a6.297 6.297 0 0 0-.602-.72c-1.754-1.79-4.4-2.243-5.737-.978-1.39 1.315-1.051 3.806.773 5.67 1.067 1.089 2.45 1.74 3.7 1.74.305 0 .577-.073.849-.147v11.05h-3.295c-.522-3.528-3.511-7.58-4.106-8.357a.997.997 0 0 0-.121-.172C3.717 22.654 2.043 18.466 2.043 14.8c0-6.875 5.794-12.468 12.915-12.468 7.12 0 12.913 5.593 12.913 12.468 0 3.66-1.67 7.841-4.393 10.956-.16.204-3.596 4.671-4.154 8.502zm-2.29-15.943c.68-.692 1.533-1.124 2.23-1.124.271 0 .478.07.618.2.296.279.233.809.194 1.022-.114.604-.487 1.263-1.022 1.809-1.217 1.243-2.426 1.321-2.847.926-.477-.451-.223-1.76.828-2.833zm-3.327 2.833c-.42.395-1.63.317-2.847-.926-1.05-1.074-1.303-2.382-.828-2.83.14-.132.347-.2.62-.2.545 0 1.417.296 2.227 1.123.535.547.908 1.207 1.021 1.81.04.215.102.744-.193 1.023z"/></svg></svg>