<svg width="27" height="21" xmlns="http://www.w3.org/2000/svg" xmlns:xlink="http://www.w3.org/1999/xlink" xmlns:svgjs="http://svgjs.com/svgjs" fill="#f7f7f7"><svg xmlns="http://www.w3.org/2000/svg" width="27" height="21" viewBox="0.012 0.75 25.988 20.213"><path paint-order="stroke fill markers" fill-rule="evenodd" d="M26 2.916v15.881c0 1.196-.97 2.166-2.166 2.166H2.178a2.166 2.166 0 0 1-2.166-2.166V2.916C.012 1.72.982.75 2.178.75h21.656C25.03.75 26 1.72 26 2.916zm-2.166 11.342l-1.461-7.011h-1.404c-.433 0-.762.126-.947.582l-2.694 6.43h1.904s.312-.867.38-1.052h2.327c.055.248.217 1.051.217 1.051h1.678zM6.893 14.25l2.851-7.002H7.827l-1.774 4.782-.194-.97-.631-3.221c-.104-.447-.424-.573-.821-.591h-2.92l-.031.14c.713.18 1.349.442 1.904.771l1.615 6.091h1.918zm4.259.01l1.137-7.012h-1.814l-1.132 7.011h1.809zm6.312-2.293c.009-.798-.478-1.407-1.52-1.908-.637-.32-1.025-.537-1.025-.867.01-.297.33-.604 1.042-.604a3.108 3.108 0 0 1 1.35.266l.162.077.248-1.516a4.505 4.505 0 0 0-1.624-.298c-1.791 0-3.05.957-3.06 2.32-.013 1.005.903 1.565 1.589 1.903.7.343.938.569.938.87-.009.47-.568.687-1.087.687-.722 0-1.11-.113-1.701-.375l-.24-.113-.252 1.575c.424.194 1.21.365 2.022.374 1.904.005 3.144-.938 3.158-2.39zm3.758-2.224s.343 1.678.42 2.03h-1.507c.149-.401.722-1.962.722-1.962-.01.013.148-.411.239-.673l.126.605z"/></svg></svg>