<svg width="42" height="43" xmlns="http://www.w3.org/2000/svg" xmlns:xlink="http://www.w3.org/1999/xlink" xmlns:svgjs="http://svgjs.com/svgjs" viewBox="0 0.5 42 42" fill="#37b7c7"><svg xmlns="http://www.w3.org/2000/svg" width="42" height="43" viewBox="0 0.325 42 42"><path paint-order="stroke fill markers" fill-rule="evenodd" d="M0 21.325c0-11.579 9.42-21 21-21s21 9.421 21 21c0 11.58-9.42 21-21 21s-21-9.42-21-21zm1.786 0c0 10.594 8.62 19.213 19.214 19.213s19.213-8.619 19.213-19.213C40.213 10.73 31.594 2.112 21 2.112c-10.595 0-19.214 8.618-19.214 19.213zm18.33 1.777a.893.893 0 0 1-.894-.894V6.217a.893.893 0 0 1 1.787 0v15.097h9.717a.893.893 0 1 1 0 1.788h-10.61z"/></svg></svg>